<svg xmlns="http://www.w3.org/2000/svg" width="101.342" height="115.19" viewBox="0 0 101.342 115.19"><g transform="translate(0.157)"><path d="M32.7,130.723C38.753,136,44.693,141.2,50.744,146.441c5.756-5.018,11.364-9.925,17.083-14.869-1.882-3.062-2.915-6.309-1.845-9.741a14.823,14.823,0,0,1,2.915-5.608c3.911-4.243,8.08-8.265,12.213-12.286a8.8,8.8,0,0,1,7.711-2.546c-1.992,1.845-4.022,3.653-5.977,5.534-3.21,3.136-6.383,6.272-9.482,9.519a3.4,3.4,0,0,0-.664,2.4c.037.369,1.144.959,1.7.886a3.357,3.357,0,0,0,1.771-1.144c5.165-5.092,10.257-10.257,15.386-15.386,2.1-2.1,2.361-2.1,4.981.111Q90.279,109.453,84.1,115.6l-5.867,5.867c-.922.885-1.328,1.882-.3,2.878s1.992.443,2.878-.406l18.116-18.116c2.177,2.288,2.177,2.73,0,4.907L83.8,125.853l-.775.775c-.738.812-1.07,1.734-.184,2.62.886.922,1.882.7,2.73-.148l11.733-11.733a52.473,52.473,0,0,1,3.874-3.69A10.033,10.033,0,0,1,98.3,121.13c-4.022,4.132-8.08,8.265-12.25,12.25a11.873,11.873,0,0,1-13.873,1.845c-.48-.258-.959-.517-1.55-.812C65.8,139.947,61,145.445,56.094,151.09c7.121,6.235,14.131,12.36,21.142,18.448-2.841,2.8-5.645,5.5-8.634,8.412-5.867-6.715-11.844-13.578-18.005-20.625-6.309,7.232-12.545,14.39-18.67,21.4-2.878-2.841-5.645-5.608-8.56-8.486C30.525,164,37.831,157.621,45.21,151.164c-1.328-1.55-2.583-3.025-3.874-4.5-3.468-3.985-6.973-7.97-10.4-11.954-.738-.849-1.291-1.181-2.435-.627a11.63,11.63,0,0,1-8.486.406C9.6,131.314,2.705,124.6.233,113.936c-2.029-8.855,4.1-14.759,12.987-12.914,9.962,2.029,19,11.364,20.736,21.4A12.167,12.167,0,0,1,32.7,130.723Z" transform="translate(0 -63.535)" fill="#ff5733"/><path d="M109.6,94.9c4.723-1.181,5.977-2.472,7.564-7.6.775,4.317,3.358,6.42,7.305,7.232-4.206.775-6.272,3.505-7.084,7.49C116.684,97.742,113.917,95.712,109.6,94.9Z" transform="translate(-69.26 -55.09)" fill="#ff5733"/><path d="M181.262,42.616c-.664-3.173-2.878-4.612-6.162-5.5,3.579-.59,5.165-2.73,5.94-5.719.664,3.136,2.657,4.686,5.645,5.534C183.586,37.6,182.073,39.7,181.262,42.616Z" transform="translate(-110.593 -19.815)" fill="#ff5733"/><path d="M120.9,5.313c2.583-.7,3.8-2.509,4.612-5.313.7,3.1,2.546,4.428,5.5,5.129-3.1.553-4.5,2.324-5.313,5.35A6.326,6.326,0,0,0,120.9,5.313Z" transform="translate(-76.391)" fill="#ff5733"/><path d="M62.273,34.481a6.119,6.119,0,0,0-4.87,5.2,6.024,6.024,0,0,0-5.2-4.87A6.114,6.114,0,0,0,57.107,29.5C57.771,32.341,59.358,33.817,62.273,34.481Z" transform="translate(-33.039 -18.616)" fill="#ff5733"/></g></svg>