<svg xmlns="http://www.w3.org/2000/svg" xmlns:xlink="http://www.w3.org/1999/xlink" width="194.105" height="71.158" viewBox="0 0 194.105 71.158"><defs><linearGradient id="linear-gradient" x1=".5" x2=".5" y2="1" gradientUnits="objectBoundingBox"><stop offset="0" stop-color="#62cbac"/><stop offset="1" stop-color="#316656"/></linearGradient><clipPath id="clip-path"><rect id="Rectangle_3" width="69.373" height="71.158" fill="url(#linear-gradient)" data-name="Rectangle 3"/></clipPath></defs><g id="Group_4" data-name="Group 4" transform="translate(-196.895 -26)"><g id="Group_2" data-name="Group 2" transform="translate(196.895 26)"><g id="Group_3" clip-path="url(#clip-path)" data-name="Group 3"><path id="Path_37" fill="url(#linear-gradient)" d="M0,36.587V34.494c.01-.091.027-.182.03-.274a35.939,35.939,0,0,1,.594-5.382A35.677,35.677,0,0,1,16.359,5.362,33.9,33.9,0,0,1,32.954.043a33.99,33.99,0,0,1,6.521.3,33.375,33.375,0,0,1,6.663,1.654A34.4,34.4,0,0,1,58.77,10a35.244,35.244,0,0,1,7.138,10.1,36.179,36.179,0,0,1,3.456,14.745,36.052,36.052,0,0,1-8.836,24.481A34.362,34.362,0,0,1,46.871,68.9a33.489,33.489,0,0,1-10.365,2.206,33.925,33.925,0,0,1-6.384-.263,33.583,33.583,0,0,1-6.838-1.668,34.042,34.042,0,0,1-9.96-5.593q-.949-.766-1.848-1.594a35.276,35.276,0,0,1-7.5-9.894A35.823,35.823,0,0,1,.609,42.192a35.344,35.344,0,0,1-.542-4.53C.048,37.3.023,36.945,0,36.587m17.206.673c.057.27.108.524.163.778A44.939,44.939,0,0,0,21.649,49.7a.215.215,0,0,0,.242.135,58.869,58.869,0,0,0,6.214-.826,54.968,54.968,0,0,0,9.662-2.754c.051-.02.1-.044.161-.071L32.4,34.1a49.112,49.112,0,0,1-15.2,3.164m18.252-4.449,5.52,12.077c.076-.033.134-.055.19-.083.8-.4,1.606-.786,2.394-1.207a47.01,47.01,0,0,0,9.374-6.555.252.252,0,0,0,.088-.3,49.488,49.488,0,0,0-5.067-11.976c-.032-.054-.067-.106-.11-.174a46.558,46.558,0,0,1-5.866,4.592,48.468,48.468,0,0,1-6.524,3.624m3.854,16.4a59.032,59.032,0,0,1-15.683,3.793c.313.445.6.862.895,1.27A35.3,35.3,0,0,0,32.532,62.3a.484.484,0,0,0,.314.09c.719-.1,1.437-.206,2.151-.332A43.943,43.943,0,0,0,43.844,59.5c.046-.019.089-.045.137-.07L39.312,49.216M34.081,29.8a44.137,44.137,0,0,0,11.934-8.026A38.844,38.844,0,0,0,37.93,13.3a33.994,33.994,0,0,1-8.524,6.268L34.081,29.8M56.875,12.778c-.037.061-.064.1-.084.139a41.357,41.357,0,0,1-6.407,9.133.2.2,0,0,0-.025.294,51.707,51.707,0,0,1,5.317,11.7c.02.063.047.123.084.221a1.023,1.023,0,0,1,.067-.1,40.054,40.054,0,0,0,7.443-11.6.358.358,0,0,0-.016-.312,32.411,32.411,0,0,0-5.3-8.293c-.348-.4-.712-.779-1.078-1.179M18.048,49.97c-.02-.049-.037-.1-.059-.142a47.324,47.324,0,0,1-2.619-6.484,47.946,47.946,0,0,1-1.488-5.833c-.032-.169-.085-.228-.272-.238-1.056-.057-2.113-.11-3.165-.213A41.014,41.014,0,0,1,4.4,36l-1.079-.276c0,.087,0,.155,0,.223A34.27,34.27,0,0,0,3.8,41.186,32.553,32.553,0,0,0,5.97,48.548a.33.33,0,0,0,.193.163c.263.072.531.123.8.179a45.1,45.1,0,0,0,5.177.806c1.347.123,2.7.2,4.051.269.613.033,1.23.006,1.859.006M16.505,22.881c-.072,1.149-.167,2.278-.209,3.409a46.97,46.97,0,0,0,.34,7.514c.015.124.056.167.185.157.487-.035.974-.057,1.461-.088a42.2,42.2,0,0,0,4.631-.574,45.6,45.6,0,0,0,6.933-1.8c.388-.134.774-.276,1.175-.419L26.385,20.932a29.644,29.644,0,0,1-4.834,1.421,27.027,27.027,0,0,1-5.046.528M47,58.066c.067-.03.12-.052.17-.078.386-.2.774-.4,1.156-.607a41.5,41.5,0,0,0,6.37-4.246.358.358,0,0,0,.13-.222,48.351,48.351,0,0,0-.017-5.384,52.35,52.35,0,0,0-.748-6.241c-.041-.229-.089-.457-.139-.712a51.941,51.941,0,0,1-11.566,7.332L47,58.066m11.188-8.176.07.021c.037-.045.072-.092.112-.134A35.987,35.987,0,0,0,65.8,38.451a2.513,2.513,0,0,0,.2-.927c.016-1.062.059-2.126.03-3.188a31.5,31.5,0,0,0-.959-6.8c-.049-.2-.1-.391-.164-.621-.047.084-.073.128-.1.174a43.729,43.729,0,0,1-7.924,10.765.3.3,0,0,0-.082.323,49.022,49.022,0,0,1,1.088,6.435c.143,1.479.207,2.966.3,4.45.017.276,0,.553,0,.83M40.149,10.827a42.114,42.114,0,0,1,8.219,8.539c.038-.051.062-.091.092-.125A38.071,38.071,0,0,0,54.2,10.69c.126-.257.125-.258-.1-.441a31,31,0,0,0-8.237-4.814c-.609-.239-1.228-.452-1.855-.682a31.033,31.033,0,0,1-3.86,6.074m-12.4,51.911c-.091-.083-.146-.133-.2-.182a39.076,39.076,0,0,1-4.031-4.171A41.521,41.521,0,0,1,19.957,53.4a.234.234,0,0,0-.25-.132c-.185.016-.371.02-.557.024a53.761,53.761,0,0,1-6.356-.2c-1.248-.125-2.491-.293-3.735-.448-.354-.044-.7-.11-1.083-.17.045.081.074.137.107.19a31.935,31.935,0,0,0,6.82,7.936,1.54,1.54,0,0,0,.489.283A37.134,37.134,0,0,0,22.1,62.4a40.486,40.486,0,0,0,4.6.341c.33.006.66,0,1.045,0M13.319,33.951a50.529,50.529,0,0,1-.1-11.273,23.486,23.486,0,0,1-6.467-1.806c-.038.072-.066.123-.092.174a31.917,31.917,0,0,0-2.711,8.041c-.192,1-.311,2.007-.461,3.011-.017.111-.044.216.126.265a35.942,35.942,0,0,0,4.8,1.08c1.258.181,2.524.306,3.787.445.361.04.727.042,1.111.062M23.675,7.03l4.345,9.506c1.49-.547,6.405-4.114,7.11-5.158a32.282,32.282,0,0,0-7.891-3.523,30.778,30.778,0,0,0-3.564-.825M20.71,8.516a38.986,38.986,0,0,0-2.245,5.4,41.845,41.845,0,0,0-1.442,5.638A24.554,24.554,0,0,0,25,17.911L20.71,8.516m6.246-4.2A38.435,38.435,0,0,1,32.37,6.2a36.561,36.561,0,0,1,5.055,2.7A25.915,25.915,0,0,0,40.7,3.909a30.482,30.482,0,0,0-13.748.41M16.731,9.133a31.657,31.657,0,0,0-8.34,8.832,19.954,19.954,0,0,0,5.292,1.429A46.105,46.105,0,0,1,16.731,9.133m20.351,55.9c.053.034.08.054.109.068a31.7,31.7,0,0,0,4.618,1.848.5.5,0,0,0,.253,0,29.272,29.272,0,0,0,3.927-1.253c.236-.093.47-.193.719-.3l-1.342-2.937a48.106,48.106,0,0,1-8.283,2.569m12.6-1.1c.057-.027.1-.045.139-.068a30.476,30.476,0,0,0,3.666-2.44.474.474,0,0,0,.15-.258q.308-1.429.6-2.862c.048-.234.076-.472.12-.75a46.946,46.946,0,0,1-5.971,3.544l1.3,2.835M24.216,65.946c0,.014,0,.029,0,.043a30.164,30.164,0,0,0,10.969,1.833.985.985,0,0,0-.175-.117C34,67.121,33,66.54,32,65.95a.633.633,0,0,0-.392-.093c-.869.061-1.737.149-2.607.162-1.3.02-2.6-.012-3.9-.027-.3,0-.59-.029-.885-.045M62.859,49.723c-.026.031-.053.061-.079.092a41.283,41.283,0,0,1-4.553,4.679.6.6,0,0,0-.223.441c-.043.526-.1,1.051-.163,1.576-.034.31-.076.618-.115.928a30.11,30.11,0,0,0,5.133-7.716" data-name="Path 37" transform="translate(0 0.001)"/></g></g><text id="DSME" fill="#5dc1a3" font-family="Montserrat-SemiBold, Montserrat" font-size="27" font-weight="600" transform="translate(275 59)"><tspan x="0" y="0">DSME</tspan></text><text id="GLOBAL" fill="#00040e" font-family="Montserrat-Medium, Montserrat" font-size="27" font-weight="500" transform="translate(275 84)"><tspan x="0" y="0">GLOBAL</tspan></text></g></svg>